# xmcd
#
# Track frame offsets: 
#        150
#        16300
#        31837
#        47537
#        62625
#        78337
#        93600
#        108775
#        122850
#        138800
#        154525
#        176950
#        189837
#        201287
#        214762
#        230337
#
# Disc length: 3261 seconds
#
# Revision: 1
# Processed by: cddbd v1.5.2PL0 Copyright (c) Steve Scherf et al.
# Submitted via: ExactAudioCopy v1.3
#
DISCID=cb0cbb10
DTITLE=Glenn Miller - Moonlight Serenade
DYEAR=1900
DGENRE=Jazz
TTITLE0=In the Mood
TTITLE1=Moonllight Serenade
TTITLE2=Chattanooga Choo Choo
TTITLE3=Pensylvania 6-5000
TTITLE4=Serenade in Blue
TTITLE5=String of Pearls
TTITLE6=American Patrol
TTITLE7=St Louis Blues March
TTITLE8=Tuxedo Junction
TTITLE9=Song of the Volga Boatman
TTITLE10=Anvil Chorus
TTITLE11=Johnson Rag
TTITLE12=Sun Valley Jump
TTITLE13=I Know Why
TTITLE14=Stardust
TTITLE15=Melancholy Baby
EXTD=
EXTT0=
EXTT1=
EXTT2=
EXTT3=
EXTT4=
EXTT5=
EXTT6=
EXTT7=
EXTT8=
EXTT9=
EXTT10=
EXTT11=
EXTT12=
EXTT13=
EXTT14=
EXTT15=
PLAYORDER=
